# xmcd
#
# Track frame offsets:
#	150
#	12975
#	23483
#	45633
#	65615
#	85425
#	100522
#	121840
#	139728
#	159906
#	177123
#	190161
#	199443
#	205293
#	214430
#	231563
#	238284
#	321846
#	330825
#	343854
#
# Disc length: 4721 seconds
# Revision: 0
# Processed by: cddbd v1.5.2PL0 Copyright (c) Steve Scherf et al.
# Submitted via: dBpowerAMP V12.0
#
DISCID=22126f14
DTITLE=17.3.1944 - 16.4.1944 - Tagebuch CD6
DYEAR=1900
DGENRE=
TTITLE0=137
TTITLE1=138
TTITLE2=139
TTITLE3=140
TTITLE4=141
TTITLE5=142
TTITLE6=143
TTITLE7=144
TTITLE8=145
TTITLE9=146
TTITLE10=147
TTITLE11=148
TTITLE12=149
TTITLE13=150
TTITLE14=151
TTITLE15=152
TTITLE16=153
TTITLE17=154
TTITLE18=155
TTITLE19=156
EXTD=
EXTT0=
EXTT1=
EXTT2=
EXTT3=
EXTT4=
EXTT5=
EXTT6=
EXTT7=
EXTT8=
EXTT9=
EXTT10=
EXTT11=
EXTT12=
EXTT13=
EXTT14=
EXTT15=
EXTT16=
EXTT17=
EXTT18=
EXTT19=
PLAYORDER=
